<svg xmlns="http://www.w3.org/2000/svg" viewBox="0 0 64 64" fill="none">
  <path d="M32 10C20.4 10 11 19.7 11 31.5C11 41.1 17.2 49.4 25.8 52.4C26.8 52.6 27.2 52 27.2 51.5V47.8C21.8 49 20.6 45.4 20.6 45.4C19.8 43.3 18.6 42.7 18.6 42.7C16.9 41.6 18.7 41.6 18.7 41.6C20.6 41.7 21.6 43.6 21.6 43.6C23.3 46.6 26.2 45.8 27.3 45.3C27.5 44 28 43.1 28.6 42.6C24.3 42.1 19.8 40.4 19.8 30.5C19.8 27.7 20.8 25.5 22.5 23.8C22.2 23.3 21.4 21.1 22.8 18.2C22.8 18.2 24.9 17.5 27.2 19.1C29.2 18.5 31.4 18.3 33.6 18.3C35.8 18.3 38 18.5 40 19.1C42.3 17.5 44.4 18.2 44.4 18.2C45.8 21.1 45 23.3 44.7 23.8C46.4 25.5 47.4 27.7 47.4 30.5C47.4 40.5 42.9 42.1 38.6 42.6C39.4 43.3 40.2 44.6 40.2 46.6V51.5C40.2 52 40.6 52.7 41.6 52.4C50.2 49.4 56.4 41.1 56.4 31.5C56.4 19.7 47.6 10 32 10Z" stroke="currentColor" stroke-width="3" stroke-linecap="round" stroke-linejoin="round"/>
</svg>
