<?xml version="1.0" encoding="iso-8859-1"?>
<!-- Generator: Adobe Illustrator 19.0.0, SVG Export Plug-In . SVG Version: 6.00 Build 0)  -->
<svg version="1.1" id="Layer_1" xmlns="http://www.w3.org/2000/svg" xmlns:xlink="http://www.w3.org/1999/xlink" x="0px" y="0px"
	 viewBox="0 0 490 490" style="enable-background:new 0 0 490 490;" xml:space="preserve">
<g>
	<g id="XMLID_36_">
		<g>
			<path style="fill:#E6E6E6;" d="M437.5,160v330h-185v-90h-120c-55,0-10-35-40-80h-40l20-100v-60c0-80,67.16-150,150-150h65
				C370.34,10,437.5,77.16,437.5,160z"/>
		</g>
		<g>
			<g>
				<path d="M447.5,490h-20V160c0-77.196-62.804-140-140-140h-65c-75.888,0-140,64.112-140,140v60c0,0.658-0.065,1.315-0.194,1.961
					L64.698,310H92.5c3.344,0,6.466,1.671,8.32,4.453c14.986,22.479,13.622,42.645,12.625,57.369
					c-0.434,6.411-0.882,13.04,0.831,14.872c0.725,0.775,4.181,3.306,18.224,3.306h120c5.522,0,10,4.478,10,10v90h-20v-80h-110
					c-16.472,0-26.599-2.976-32.836-9.649c-7.642-8.176-6.895-19.209-6.173-29.878c0.813-12,1.724-25.457-6.596-40.473H52.5
					c-2.996,0-5.834-1.343-7.733-3.66c-1.899-2.316-2.66-5.363-2.072-8.301L62.5,219.01V160c0-41.051,17.065-81.882,46.818-112.025
					C139.856,17.038,180.052,0,222.5,0h65c88.225,0,160,71.775,160,160V490z"/>
			</g>
		</g>
	</g>
	<g id="XMLID_37_">
		<g>
			<circle style="fill:#FFD248;" cx="337.5" cy="130" r="25"/>
			<circle style="fill:#FFD248;" cx="257.5" cy="130" r="25"/>
			<circle style="fill:#FFD248;" cx="177.5" cy="130" r="25"/>
		</g>
		<g>
			<g>
				<path d="M257.5,165c-19.299,0-35-15.701-35-35s15.701-35,35-35s35,15.701,35,35S276.799,165,257.5,165z M257.5,115
					c-8.271,0-15,6.729-15,15s6.729,15,15,15c8.272,0,15-6.729,15-15S265.772,115,257.5,115z"/>
			</g>
			<g>
				<path d="M177.5,165c-19.299,0-35-15.701-35-35s15.701-35,35-35s35,15.701,35,35S196.799,165,177.5,165z M177.5,115
					c-8.271,0-15,6.729-15,15s6.729,15,15,15s15-6.729,15-15S185.772,115,177.5,115z"/>
			</g>
			<g>
				<path d="M337.5,165c-19.299,0-35-15.701-35-35s15.701-35,35-35s35,15.701,35,35S356.799,165,337.5,165z M337.5,115
					c-8.271,0-15,6.729-15,15s6.729,15,15,15c8.272,0,15-6.729,15-15S345.772,115,337.5,115z"/>
			</g>
		</g>
	</g>
</g>
<g>
</g>
<g>
</g>
<g>
</g>
<g>
</g>
<g>
</g>
<g>
</g>
<g>
</g>
<g>
</g>
<g>
</g>
<g>
</g>
<g>
</g>
<g>
</g>
<g>
</g>
<g>
</g>
<g>
</g>
</svg>
